<svg viewBox="0 0 8000 4500" xmlns="http://www.w3.org/2000/svg" fill-rule="evenodd" clip-rule="evenodd"
    stroke-miterlimit="10">
    <g fill="none" stroke-width="83.33">
        <path
            d="M-50 2541.55s180.307-236.439 487.5-175c416.666 83.334 1075.4-292.574 1641.67-1254.17 1237.15-2100.86 1558.12 1374.28 2912.5 558.333 1730.91-1042.79 1312.81 804.868 2266.67 841.667 1046.62 40.377-777.083 1722.92-779.166 2112.5"
            stroke="#9e005d" />
        <path
            d="M-37.5 2641.55s170.833-283.333 475-208.333c304.166 75 1155.77-255.079 1680.2-1250.37 1200.34-2278.06 1751.85 1325.57 2785.58 579.094 1971.67-1423.79 1452.79 927.568 2330.05 771.277 1089.21-194.052-739.072 1473.15-691.666 2091.67"
            stroke="#d20e81" />
    </g>
</svg>