<svg viewBox="0 0 8000 4500" xmlns="http://www.w3.org/2000/svg" fill-rule="evenodd" clip-rule="evenodd"
    stroke-miterlimit="10">
    <g fill="none" stroke-width="83.33">
        <path
            d="M-50 2541.55s183.333-250 487.5-175c304.166 75 1433.63-157.793 1641.67-1254.17 456.33-2404.94 1887.76 1456.32 2912.5 558.333 1582.05-1386.36 1387.5 1047.92 2266.67 841.667 879.167-206.25-777.083 1722.92-779.166 2112.5"
            stroke="#9e005d" />
        <path
            d="M-37.5 2641.55s170.833-283.333 475-208.333c304.166 75 1457.93-156.796 1680.2-1250.37 501.005-2464.91 1751.85 1325.57 2785.58 579.094 1971.67-1423.79 1441.62 839.946 2330.05 771.277 893.379-69.052-739.072 1473.15-691.666 2091.67"
            stroke="#d20e81" />
    </g>
</svg>