<?xml version="1.0" encoding="UTF-8" standalone="no"?>
<!DOCTYPE svg PUBLIC "-//W3C//DTD SVG 1.1//EN" "http://www.w3.org/Graphics/SVG/1.1/DTD/svg11.dtd"><svg width="100%"
    height="100%" viewBox="0 0 5905 5905" version="1.1" xmlns="http://www.w3.org/2000/svg"
    xmlns:xlink="http://www.w3.org/1999/xlink" xml:space="preserve" xmlns:serif="http://www.serif.com/"
    style="fill-rule:evenodd;clip-rule:evenodd;stroke-linejoin:round;stroke-miterlimit:2;">
    <g>
        <path
            d="M0,322.917c148.575,-0 270.833,-131.663 270.833,-291.667c0,-17.143 14.107,-31.25 31.25,-31.25c17.144,-0 31.25,14.107 31.25,31.25c0.659,6.932 0.988,13.882 0.988,20.835c0,148.574 -150.472,270.833 -333.333,270.833c-0.329,-0 -0.659,-0.001 -0.988,-0.001Z"
            style="fill:#8284af;" />
        <g id="react-brands" opacity="0.5">
            <clipPath id="_clip1">
                <rect x="279.167" y="8.333" width="45.833" height="45.833" />
            </clipPath>
            <g clip-path="url(#_clip1)">
                <path
                    d="M316.603,24.196c-0.483,-0.161 -0.967,-0.313 -1.45,-0.457c0.081,-0.331 0.152,-0.662 0.224,-0.993c1.101,-5.336 0.376,-9.623 -2.068,-11.038c-2.354,-1.352 -6.195,0.054 -10.08,3.438c-0.385,0.331 -0.761,0.68 -1.119,1.029c-0.242,-0.233 -0.492,-0.465 -0.743,-0.689c-4.073,-3.617 -8.155,-5.139 -10.599,-3.715c-2.345,1.361 -3.043,5.398 -2.059,10.447c0.099,0.501 0.206,0.993 0.332,1.495c-0.573,0.161 -1.137,0.34 -1.666,0.528c-4.78,1.656 -8.208,4.27 -8.208,6.973c-0,2.793 3.652,5.595 8.62,7.296c0.403,0.134 0.806,0.268 1.218,0.385c-0.135,0.537 -0.251,1.065 -0.358,1.611c-0.94,4.968 -0.206,8.907 2.139,10.259c2.417,1.396 6.481,-0.036 10.438,-3.5c0.313,-0.278 0.627,-0.564 0.94,-0.869c0.394,0.385 0.806,0.752 1.217,1.111c3.832,3.294 7.618,4.628 9.955,3.276c2.417,-1.397 3.205,-5.631 2.184,-10.787c-0.081,-0.394 -0.17,-0.797 -0.269,-1.209c0.287,-0.08 0.564,-0.17 0.842,-0.259c5.165,-1.71 8.907,-4.476 8.907,-7.314c0,-2.712 -3.527,-5.344 -8.397,-7.018Zm-12.112,-7.6c3.33,-2.901 6.437,-4.037 7.851,-3.223c1.513,0.869 2.095,4.378 1.146,8.988c-0.063,0.304 -0.125,0.6 -0.206,0.895c-1.987,-0.448 -4.001,-0.77 -6.025,-0.949c-1.163,-1.665 -2.434,-3.258 -3.813,-4.753c0.349,-0.332 0.689,-0.645 1.047,-0.958Zm-10.357,19.264c0.457,0.779 0.922,1.558 1.415,2.319c-1.397,-0.152 -2.785,-0.376 -4.154,-0.672c0.394,-1.289 0.886,-2.623 1.459,-3.983c0.412,0.788 0.833,1.566 1.28,2.336Zm-2.712,-10.769c1.289,-0.286 2.658,-0.519 4.082,-0.698c-0.475,0.743 -0.94,1.504 -1.379,2.274c-0.438,0.761 -0.868,1.539 -1.271,2.327c-0.564,-1.334 -1.038,-2.641 -1.432,-3.903Zm2.453,6.168c0.59,-1.235 1.235,-2.444 1.915,-3.634c0.681,-1.191 1.415,-2.346 2.184,-3.483c1.343,-0.098 2.713,-0.152 4.109,-0.152c1.397,0 2.775,0.054 4.109,0.152c0.761,1.128 1.486,2.283 2.176,3.465c0.689,1.181 1.333,2.39 1.942,3.616c-0.6,1.235 -1.244,2.453 -1.934,3.652c-0.68,1.191 -1.405,2.346 -2.166,3.492c-1.334,0.098 -2.721,0.143 -4.127,0.143c-1.405,-0 -2.766,-0.045 -4.082,-0.125c-0.779,-1.137 -1.513,-2.301 -2.202,-3.492c-0.689,-1.19 -1.325,-2.399 -1.924,-3.634Zm16.167,4.583c0.456,-0.787 0.886,-1.584 1.306,-2.39c0.573,1.298 1.075,2.614 1.513,3.966c-1.387,0.313 -2.793,0.555 -4.207,0.716c0.483,-0.752 0.94,-1.522 1.388,-2.292Zm1.289,-6.848c-0.421,-0.788 -0.851,-1.575 -1.298,-2.345c-0.439,-0.761 -0.896,-1.513 -1.37,-2.256c1.441,0.179 2.82,0.421 4.109,0.716c-0.412,1.325 -0.895,2.614 -1.441,3.885Zm-9.23,-10.071c0.94,1.021 1.826,2.095 2.65,3.205c-1.772,-0.08 -3.554,-0.08 -5.326,0c0.877,-1.155 1.781,-2.229 2.676,-3.205Zm-10.384,-5.487c1.504,-0.877 4.843,0.376 8.361,3.491c0.224,0.197 0.448,0.412 0.68,0.627c-1.387,1.495 -2.667,3.088 -3.84,4.753c-2.023,0.179 -4.028,0.492 -6.015,0.931c-0.117,-0.456 -0.215,-0.922 -0.314,-1.387c-0.841,-4.333 -0.286,-7.601 1.128,-8.415Zm-2.193,23.597c-0.376,-0.108 -0.743,-0.224 -1.11,-0.349c-1.907,-0.6 -4.073,-1.549 -5.64,-2.793c-0.904,-0.627 -1.513,-1.594 -1.683,-2.677c0,-1.638 2.829,-3.733 6.911,-5.156c0.51,-0.179 1.03,-0.34 1.549,-0.492c0.609,1.942 1.343,3.849 2.193,5.693c-0.859,1.871 -1.602,3.804 -2.22,5.774Zm10.438,8.773c-1.477,1.351 -3.187,2.426 -5.049,3.16c-0.994,0.474 -2.14,0.519 -3.16,0.116c-1.423,-0.824 -2.014,-3.984 -1.209,-8.236c0.099,-0.501 0.206,-1.002 0.332,-1.495c2.005,0.43 4.028,0.725 6.078,0.878c1.182,1.674 2.48,3.276 3.867,4.78c-0.286,0.277 -0.573,0.546 -0.859,0.797Zm2.193,-2.176c-0.913,-0.984 -1.826,-2.076 -2.712,-3.249c0.859,0.036 1.745,0.054 2.64,0.054c0.922,-0 1.827,-0.018 2.722,-0.063c-0.824,1.137 -1.71,2.22 -2.65,3.258Zm11.7,2.686c-0.081,1.092 -0.618,2.113 -1.477,2.802c-1.423,0.823 -4.458,-0.251 -7.734,-3.062c-0.376,-0.322 -0.752,-0.671 -1.137,-1.029c1.369,-1.513 2.632,-3.115 3.777,-4.798c2.05,-0.17 4.091,-0.484 6.105,-0.94c0.09,0.367 0.171,0.734 0.242,1.092c0.439,1.933 0.51,3.948 0.224,5.935Zm1.629,-9.623c-0.25,0.08 -0.501,0.161 -0.761,0.232c-0.626,-1.951 -1.396,-3.858 -2.282,-5.711c0.859,-1.826 1.584,-3.706 2.193,-5.631c0.465,0.135 0.913,0.278 1.343,0.421c4.171,1.433 7.098,3.563 7.098,5.192c0,1.755 -3.124,4.02 -7.591,5.497Zm-13.401,-1.343c2.265,-0 4.1,-1.835 4.1,-4.1c0,-2.265 -1.835,-4.1 -4.1,-4.1c-2.264,0 -4.1,1.835 -4.1,4.1c0,2.265 1.836,4.1 4.1,4.1Z"
                    style="fill-rule:nonzero;stroke:#000;stroke-width:0.54px;" />
            </g>
        </g>
    </g>
</svg>