<svg viewBox="0 0 1417 1417" xmlns="http://www.w3.org/2000/svg" fill-rule="evenodd" clip-rule="evenodd"
    stroke-linejoin="round" stroke-miterlimit="2">
    <circle cx="666.667" cy="666.667" r="416.667" fill="#ff006c" />
    <clipPath id="prefix__a">
        <circle cx="666.667" cy="666.667" r="416.667" />
    </clipPath>
    <g clip-path="url(#prefix__a)">
        <path
            d="M1056.05 500c-201.958 99.063-408.478-94.362-535.213-250 .182 130.094 141.475 368.009 266.667 416.667 29.312 9.461 115.653 40.916 162.971 41.666 151.789 2.407 157.683-45.962 132.862-41.666 30.192-63.252 15.148-117.642-27.287-166.667z"
            fill="url(#prefix___Linear2)" />
        <path
            d="M387.5 358.333C263.537 472.667 182.36 639.096 250 737.632c67.64 98.536 428.216 205.052 543.343 211.917C712.83 910.802 480.067 713.565 387.5 358.333z"
            fill="url(#prefix___Linear3)" />
        <path
            d="M1056.05 518.155c-52.29-259.167-207.372-347.449-467.685-260.795 36.075 271.811 352.872 426.363 467.685 260.795z"
            fill="url(#prefix___Linear4)" />
        <path
            d="M250 741.667c36.692 3.782 123.092-38.171 187.5 83.333 98.604 186.014 353.704 93.123 355.843 87.049-87.707 205.792-312.099 141.188-543.343-91.216 0 0-36.692-82.949 0-79.166z"
            fill="url(#prefix___Linear5)" />
        <path
            d="M1083.33 666.667c-173.522 3.191-278.872 107.648-375 133.779-159.963 43.482-284.967-72.311-389.754-62.814 32.276 180.219 364.793 254.028 474.764 195.25 88.8-47.463 214.371-85.289 262.703-132.436 32.578-31.78 27.767-79.814 27.287-133.779z"
            fill="url(#prefix___Linear6)" />
        <path
            d="M1056.05 809.86c-25.674-32.189-230.911 22.345-265.991 100.184-95.272 211.403-417.931 43.198-499.024-71.018 11.504 146.572 318.873 273.896 297.33 258.334 229.558.974 397.085-84.559 467.685-287.5z"
            fill="url(#prefix___Linear7)" />
        <path
            d="M287.5 358.333c35.46 89.007 241.86 349.311 280.383 350 64.341 1.152 154.444-286.969 115.45-458.333-106.545-20.658-338.34-.159-395.833 108.333z"
            fill="url(#prefix___Linear8)" />
    </g>
    <defs>
        <linearGradient id="prefix___Linear2" x1="0" y1="0" x2="1" y2="0" gradientUnits="userSpaceOnUse"
            gradientTransform="matrix(578.352 0 0 416.667 520.833 458.333)">
            <stop offset="0" stop-color="#fff" stop-opacity="0" />
            <stop offset="1" stop-color="#1d84af" />
        </linearGradient>
        <linearGradient id="prefix___Linear3" x1="0" y1="0" x2="1" y2="0" gradientUnits="userSpaceOnUse"
            gradientTransform="matrix(288.526 0 0 379.299 232.308 547.983)">
            <stop offset="0" stop-color="#9c1861" />
            <stop offset=".48" stop-color="#e8c9da" stop-opacity=".24" />
            <stop offset="1" stop-color="#fff" stop-opacity="0" />
        </linearGradient>
        <linearGradient id="prefix___Linear4" x1="0" y1="0" x2="1" y2="0" gradientUnits="userSpaceOnUse"
            gradientTransform="matrix(467.685 0 0 361.302 588.361 405.756)">
            <stop offset="0" stop-color="#fff" stop-opacity="0" />
            <stop offset="1" stop-color="#e89a93" />
        </linearGradient>
        <linearGradient id="prefix___Linear5" x1="0" y1="0" x2="1" y2="0" gradientUnits="userSpaceOnUse"
            gradientTransform="matrix(542.984 0 0 291.915 233.692 883.589)">
            <stop offset="0" stop-color="#fff" stop-opacity="0" />
            <stop offset="1" stop-color="#8284af" />
        </linearGradient>
        <linearGradient id="prefix___Linear6" x1="0" y1="0" x2="1" y2="0" gradientUnits="userSpaceOnUse"
            gradientTransform="matrix(660.588 0 0 282.882 422.745 808.108)">
            <stop offset="0" stop-color="#fff" stop-opacity="0" />
            <stop offset="1" stop-color="#e89a93" stop-opacity=".96" />
        </linearGradient>
        <linearGradient id="prefix___Linear7" x1="0" y1="0" x2="1" y2="0" gradientUnits="userSpaceOnUse"
            gradientTransform="matrix(-781.248 0 0 440.306 1074.36 941.432)">
            <stop offset="0" stop-color="#fff" stop-opacity="0" />
            <stop offset="1" stop-color="#9c1861" />
        </linearGradient>
        <linearGradient id="prefix___Linear8" x1="0" y1="0" x2="1" y2="0" gradientUnits="userSpaceOnUse"
            gradientTransform="matrix(262.5 0 0 358.333 375 429.167)">
            <stop offset="0" stop-color="#8284af" />
            <stop offset=".57" stop-color="#d8d9e6" stop-opacity=".31" />
            <stop offset="1" stop-color="#fff" stop-opacity="0" />
        </linearGradient>
    </defs>
</svg>